<?xml version="1.0" encoding="UTF-8"?>
<!-- Generator: Adobe Illustrator 22.0.1, SVG Export Plug-In . SVG Version: 6.00 Build 0)  -->
<svg xmlns="http://www.w3.org/2000/svg" xmlns:xlink="http://www.w3.org/1999/xlink" version="1.1" id="Layer_1" x="0px" y="0px" viewBox="0 0 153.3 50" style="enable-background:new 0 0 153.3 50;" xml:space="preserve">
<style type="text/css">
	.st0{fill:#343741;}
	.st1{fill:#B5231D;}
</style>
<g id="XMLID_1_">
	<g id="XMLID_37_">
		<g id="XMLID_58_">
			<path id="XMLID_76_" class="st0" d="M73.7,36.8v-0.3h1v0.3c0,0.1,0,0.2,0.1,0.3c0.1,0.1,0.2,0.1,0.3,0.1h5.8c0.1,0,0.2,0,0.3-0.1     c0.1-0.1,0.1-0.2,0.1-0.3v-1.9c0-0.1,0-0.2-0.1-0.3c-0.1-0.1-0.2-0.1-0.3-0.1h-5.8c-0.4,0-0.7-0.1-1-0.4c-0.3-0.3-0.4-0.6-0.4-1     V31c0-0.4,0.1-0.7,0.4-1c0.3-0.3,0.6-0.4,1-0.4h5.8c0.4,0,0.7,0.1,1,0.4c0.3,0.3,0.4,0.6,0.4,1v0.3h-1V31c0-0.1,0-0.2-0.1-0.3     c-0.1-0.1-0.2-0.1-0.3-0.1h-5.8c-0.1,0-0.2,0-0.3,0.1c-0.1,0.1-0.1,0.2-0.1,0.3V33c0,0.1,0,0.2,0.1,0.3c0.1,0.1,0.2,0.1,0.3,0.1     h5.8c0.4,0,0.7,0.1,1,0.4c0.3,0.3,0.4,0.6,0.4,1v1.9c0,0.4-0.1,0.7-0.4,1c-0.3,0.3-0.6,0.4-1,0.4h-5.8c-0.4,0-0.7-0.1-1-0.4     C73.8,37.6,73.7,37.2,73.7,36.8z"></path>
			<path id="XMLID_73_" class="st0" d="M83.6,36.8v-4.1c0-0.4,0.1-0.7,0.4-1c0.3-0.3,0.6-0.4,1-0.4h4.2c0.4,0,0.8,0.1,1,0.4     c0.3,0.3,0.4,0.6,0.4,1v2.5h-6.1v1.5c0,0.1,0,0.2,0.1,0.3c0.1,0.1,0.2,0.1,0.3,0.1h5.6v1H85c-0.4,0-0.7-0.1-1-0.4     C83.7,37.5,83.6,37.2,83.6,36.8z M84.6,34.3h5.1v-1.5c0-0.1,0-0.2-0.1-0.3c-0.1-0.1-0.2-0.1-0.3-0.1H85c-0.1,0-0.2,0-0.3,0.1     c-0.1,0.1-0.1,0.2-0.1,0.3V34.3z"></path>
			<path id="XMLID_71_" class="st0" d="M91.9,36.8v-4.1c0-0.4,0.1-0.7,0.4-1c0.3-0.3,0.6-0.4,1-0.4H99v1h-5.7c-0.1,0-0.2,0-0.3,0.1     c-0.1,0.1-0.1,0.2-0.1,0.3v4.1c0,0.1,0,0.2,0.1,0.3c0.1,0.1,0.2,0.1,0.3,0.1H99v1h-5.7c-0.4,0-0.7-0.1-1-0.4     C92.1,37.5,91.9,37.2,91.9,36.8z"></path>
			<path id="XMLID_69_" class="st0" d="M100.3,36.8v-5.5h1v5.5c0,0.1,0,0.2,0.1,0.3c0.1,0.1,0.2,0.1,0.3,0.1h4.2     c0.1,0,0.2,0,0.3-0.1c0.1-0.1,0.1-0.2,0.1-0.3v-5.5h1v5.5c0,0.4-0.1,0.7-0.4,1c-0.3,0.3-0.6,0.4-1,0.4h-4.2c-0.4,0-0.7-0.1-1-0.4     C100.5,37.5,100.3,37.2,100.3,36.8z"></path>
			<path id="XMLID_67_" class="st0" d="M108.7,38.3v-5.5c0-0.4,0.1-0.7,0.4-1c0.3-0.3,0.6-0.4,1-0.4h3.9v1h-3.9     c-0.1,0-0.2,0-0.3,0.1c-0.1,0.1-0.1,0.2-0.1,0.3v5.5H108.7z"></path>
			<path id="XMLID_64_" class="st0" d="M114.8,30v-1h1v1H114.8z M114.8,38.3v-7h1v7H114.8z"></path>
			<path id="XMLID_61_" class="st0" d="M117.4,36.8V29h1v2.3h3v1h-3v4.5c0,0.1,0,0.2,0.1,0.3c0.1,0.1,0.2,0.1,0.3,0.1h2.6v1h-2.6     c-0.4,0-0.8-0.1-1-0.4C117.5,37.5,117.4,37.2,117.4,36.8z"></path>
			<path id="XMLID_59_" class="st0" d="M122.2,36.8v-5.5h1v5.5c0,0.1,0,0.2,0.1,0.3c0.1,0.1,0.2,0.1,0.3,0.1h4.2     c0.1,0,0.2,0,0.3-0.1c0.1-0.1,0.1-0.2,0.1-0.3v-5.5h1v8.3c0,0.4-0.1,0.8-0.4,1c-0.3,0.3-0.6,0.4-1,0.4h-4.4v-1h4.4     c0.1,0,0.2,0,0.3-0.1c0.1-0.1,0.1-0.2,0.1-0.3v-1.3h-4.7c-0.4,0-0.7-0.1-1-0.4C122.3,37.5,122.2,37.2,122.2,36.8z"></path>
		</g>
		<path id="XMLID_55_" class="st0" d="M69.3,27.2V12.5h8c0.7,0,1.3,0.3,1.9,0.8c0.5,0.5,0.8,1.1,0.8,1.9v5.3c0,0.7-0.3,1.3-0.8,1.9    c-0.5,0.5-1.1,0.8-1.9,0.8h-5.3v4.2H69.3z M72.1,20.2h5.1v-4.9h-5.1V20.2z"></path>
		<path id="XMLID_53_" class="st0" d="M81.3,23v-7.9c0-0.7,0.3-1.3,0.8-1.9c0.5-0.5,1.1-0.8,1.9-0.8h5.8v2.8h-5.7V23H81.3z"></path>
		<path id="XMLID_50_" class="st0" d="M90.9,20.4v-5.3c0-0.7,0.3-1.3,0.8-1.9c0.5-0.5,1.1-0.8,1.8-0.8h5.4c0.7,0,1.3,0.3,1.9,0.8    c0.5,0.5,0.8,1.1,0.8,1.9v5.3c0,0.7-0.3,1.3-0.8,1.9c-0.5,0.5-1.1,0.8-1.9,0.8h-5.4c-0.7,0-1.3-0.3-1.9-0.8    C91.1,21.7,90.9,21.1,90.9,20.4z M93.6,20.2h5.1v-4.9h-5.1V20.2z"></path>
		<path id="XMLID_48_" class="st0" d="M103.4,20.4v-5.3c0-0.7,0.3-1.3,0.8-1.9c0.5-0.5,1.1-0.8,1.9-0.8h8v2.8h-7.9v4.9h7.9V23h-8.1    c-0.7,0-1.3-0.3-1.9-0.8C103.7,21.7,103.4,21.1,103.4,20.4z"></path>
		<path id="XMLID_45_" class="st0" d="M116.1,23V9h2.8v7.3h1.4l3.5-3.8h2.9v0.9l-3.9,4.3l3.9,4.3V23h-2.9l-3.5-3.9h-1.4V23H116.1z"></path>
		<path id="XMLID_42_" class="st0" d="M127.8,20.4v-5.3c0-0.7,0.3-1.3,0.8-1.9c0.5-0.5,1.1-0.8,1.8-0.8h5.4c0.7,0,1.3,0.3,1.9,0.8    c0.5,0.5,0.8,1.1,0.8,1.9v4h-7.9v1h7.9V23h-8c-0.7,0-1.3-0.3-1.9-0.8C128.1,21.7,127.8,21.1,127.8,20.4z M130.6,16.7h5.1v-1.4    h-5.1V16.7z"></path>
		<path id="XMLID_40_" class="st0" d="M140.4,20.4v-11h2.8v3.1h3.9v2.8h-3.9v4.9h3.9V23h-4c-0.7,0-1.4-0.3-1.9-0.8    C140.7,21.7,140.4,21.1,140.4,20.4z"></path>
		<path id="XMLID_38_" class="st0" d="M65.4,23H53.5v-2.8h11.5v-2.8h-9.1c-0.6,0-1.2-0.1-1.7-0.4c-0.5-0.3-0.7-0.6-0.7-1.1v-5.4    c0-0.4,0.2-0.7,0.7-1c0.5-0.3,1-0.4,1.7-0.4h11.9v2.8H56.2v2.8h9.1c0.6,0,1.2,0.1,1.7,0.4c0.5,0.3,0.7,0.6,0.7,1.1v5.4    c0,0.4-0.2,0.8-0.7,1.1C66.6,22.9,66,23,65.4,23z"></path>
	</g>
	<path id="XMLID_35_" class="st0" d="M32.6,28.6H20.7v-3.2h11.1v-2.4h-8.7c-0.6,0-1.2-0.1-1.7-0.4c-0.5-0.3-0.7-0.6-0.7-1.1v-5.4   c0-0.4,0.2-0.7,0.7-1c0.5-0.3,1-0.4,1.7-0.4H35v3.2H23.9v2.4h8.7c0.6,0,1.2,0.1,1.7,0.4c0.5,0.3,0.7,0.6,0.7,1.1v5.4   c0,0.4-0.2,0.8-0.7,1.1C33.8,28.5,33.3,28.6,32.6,28.6z"></path>
	<g id="XMLID_31_">
		<path id="XMLID_34_" class="st1" d="M30.6,4.6l1,3.4v0c1.3,0.3,2.5,0.8,3.6,1.5l0,0l3.4-1.8l3.6,3.6l-1.8,3.4l0,0    c0.7,1.2,1.2,2.4,1.5,3.6l0,0l3.5,1c0.2-4.3,0.6-10.4,0.6-10.4S38.8,5.3,30.6,4.6z"></path>
		<path id="XMLID_33_" class="st1" d="M41.8,25.5L41.8,25.5c-0.3,1.3-0.8,2.5-1.5,3.6l0,0l1.8,3.4l-3.7,3.7l-3.3-1.9l0,0    c-1.2,0.7-2.4,1.2-3.6,1.5l0,0l-1.1,3.7l-5.2,0l-1-3.7l0,0c-1.3-0.3-2.5-0.8-3.6-1.5l0,0l-3.4,1.8l-3.7-3.7l1.9-3.3l0,0    c-0.7-1.2-1.2-2.4-1.5-3.6h0l-3.3-1c0.4,6.8,2.7,11.7,7.3,16.1c2.9,2.8,9.9,4.9,9.9,4.9s7-2.2,9.9-4.9c4.6-4.3,6.8-9.2,7.3-15.9    L41.8,25.5z"></path>
		<path id="XMLID_32_" class="st1" d="M14,18.2L14,18.2c0.3-1.3,0.8-2.5,1.5-3.6l0,0l-1.8-3.4l3.6-3.6l3.4,1.8l0,0    c1.2-0.7,2.4-1.2,3.6-1.5l0,0l1-3.4C17.1,5.3,10,8.9,10,8.9s0.4,6.1,0.6,10.4L14,18.2z"></path>
	</g>
	<g id="XMLID_29_">
		<g id="XMLID_30_">
			<path id="XMLID_2_" class="st0" d="M27.9,47.7L27.9,47.7c-0.4-0.1-7.8-2.6-11-5.7c-5.6-5.3-8.1-11.6-8.1-20.5     c0-3.9-0.7-13.9-0.7-14l0-0.2l0.2-0.1c0.1,0,9.6-4.8,19.6-4.8s19.5,4.8,19.6,4.8l0.2,0.1l0,0.2c0,0.1-0.7,10-0.7,14     c0,8.9-2.5,15.3-8.1,20.5C35.7,45,28.3,47.5,27.9,47.7L27.9,47.7z M8.7,7.6c0.1,1.4,0.7,10.2,0.7,13.8c0,8.8,2.4,15,7.9,20.1     c2.9,2.8,9.7,5.2,10.6,5.5c0.9-0.3,7.7-2.7,10.6-5.5c5.5-5.2,7.9-11.4,7.9-20.1c0-3.7,0.6-12.4,0.7-13.8C45.8,7,37.1,3,27.9,3     S10.1,7,8.7,7.6z"></path>
		</g>
	</g>
</g>
</svg>
